<svg xmlns="http://www.w3.org/2000/svg" width="231" height="119" viewBox="0 0 231 119" fill="none"><rect width="231" height="119" rx="10" fill="#fff"/><path d="M131 40V27C131 25.8954 130.105 25 129 25H103C101.895 25 101 25.8954 101 27V46.6667M131 40V45V53C131 54.1046 130.105 55 129 55H122.667M131 40C120.263 40 114.158 43.3086 110.908 47.0711M101 46.6667V53C101 54.1046 101.895 55 103 55H104.333H107.667H122.667M101 46.6667C103.338 46.277 107.061 46.1788 110.908 47.0711M122.667 55C119.827 50.3862 115.288 48.0869 110.908 47.0711M110.167 31.6667C109.333 31.6667 107.667 32.1667 107.667 34.1667C107.667 36.1667 109.333 36.6667 110.167 36.6667C111 36.6667 112.667 36.1667 112.667 34.1667C112.667 32.1667 111 31.6667 110.167 31.6667Z" stroke="#000" stroke-width="3" stroke-linecap="round" stroke-linejoin="round"/><path d="M91.376 84.704C91.376 83.392 90.608 82.416 89.184 82.016C90.288 81.536 90.944 80.608 90.944 79.52C90.944 77.584 89.552 76.512 87.232 76.512H83.248V88H87.456C89.84 88 91.376 86.8 91.376 84.704ZM87.12 77.92C88.512 77.92 89.264 78.576 89.264 79.648C89.264 80.72 88.512 81.376 87.12 81.376H84.864V77.92H87.12ZM87.344 82.784C88.848 82.784 89.696 83.488 89.696 84.656C89.696 85.872 88.848 86.592 87.344 86.592H84.864V82.784H87.344ZM94.9923 83.664C94.9923 81.792 96.3203 80.992 98.1443 81.088V79.408C96.7523 79.408 95.4723 80.144 94.8803 81.312V79.52H93.3763V88H94.9923V83.664ZM104.659 88H106.003V82.56C106.003 80.544 104.787 79.36 102.691 79.36C100.707 79.36 99.3471 80.624 99.2671 82.528H100.739C100.787 81.344 101.507 80.64 102.691 80.64C103.811 80.64 104.467 81.328 104.467 82.544V83.168C103.779 83.088 103.379 83.072 102.883 83.072C100.355 83.072 99.0271 83.936 99.0271 85.6C99.0271 87.152 100.179 88.16 101.939 88.16C103.187 88.16 104.131 87.632 104.659 86.688V88ZM100.563 85.552C100.563 84.56 101.363 84.08 102.979 84.08C103.395 84.08 103.843 84.096 104.467 84.176V84.864C104.467 86.16 103.619 87.008 102.259 87.008C101.219 87.008 100.563 86.432 100.563 85.552ZM109.88 83.216C109.88 81.712 110.808 80.784 111.912 80.784C113.112 80.784 113.752 81.6 113.752 83.056V88H115.368V82.512C115.368 80.48 114.216 79.36 112.472 79.36C111.304 79.36 110.344 79.984 109.768 80.928V79.52H108.264V88H109.88V83.216ZM117.006 83.76C117.006 86.304 118.478 88.16 120.766 88.16C121.966 88.16 122.99 87.552 123.598 86.48V88H125.102V76.512H123.486V80.976C122.894 79.936 121.902 79.36 120.766 79.36C118.478 79.36 117.006 81.184 117.006 83.76ZM118.686 83.76C118.686 81.84 119.678 80.784 121.086 80.784C122.43 80.784 123.486 81.824 123.486 83.728C123.486 85.6 122.462 86.72 121.086 86.72C119.678 86.72 118.686 85.648 118.686 83.76ZM129.416 77.552C129.416 76.928 128.936 76.48 128.248 76.48C127.56 76.48 127.064 76.928 127.064 77.552C127.064 78.16 127.56 78.624 128.248 78.624C128.936 78.624 129.416 78.16 129.416 77.552ZM129.064 88V79.52H127.448V88H129.064ZM133.023 83.216C133.023 81.712 133.951 80.784 135.055 80.784C136.255 80.784 136.895 81.6 136.895 83.056V88H138.511V82.512C138.511 80.48 137.359 79.36 135.615 79.36C134.447 79.36 133.487 79.984 132.911 80.928V79.52H131.407V88H133.023V83.216ZM144.15 91.264C146.55 91.264 147.974 89.936 147.974 87.712V79.52H146.47V81.024C145.894 79.952 144.934 79.36 143.718 79.36C141.59 79.36 140.15 81.056 140.15 83.584C140.15 86.08 141.654 87.824 143.766 87.824C144.918 87.824 145.878 87.232 146.358 86.208V87.744C146.358 89.2 145.59 89.984 144.134 89.984C142.822 89.984 142.054 89.344 141.958 88.16H140.39C140.486 90.08 141.926 91.264 144.15 91.264ZM141.782 83.584C141.782 81.84 142.662 80.752 144.054 80.752C145.446 80.752 146.358 81.872 146.358 83.632C146.358 85.312 145.43 86.416 144.054 86.416C142.646 86.416 141.782 85.344 141.782 83.584Z" fill="#000"/></svg>