<svg xmlns="http://www.w3.org/2000/svg" width="231" height="119" viewBox="0 0 231 119" fill="none"><rect width="231" height="119" rx="10" fill="#fff"/><path d="M116 47.5H130.875C131.98 47.5 132.875 46.6046 132.875 45.5V27C132.875 25.8954 131.98 25 130.875 25L101.125 25C100.02 25 99.125 25.8954 99.125 27V45.5C99.125 46.6046 100.02 47.5 101.125 47.5H116ZM116 47.5V55M116 55H123.5M116 55H108.5" stroke="#000" stroke-width="3" stroke-linecap="round" stroke-linejoin="round"/><path d="M57 88H58.824L61.816 76.512H60.088L57.88 85.376L55.496 76.512H53.672L51.256 85.36L49.048 76.512H47.32L50.312 88H52.12L54.568 78.992L57 88ZM66.1299 88.16C68.1299 88.16 69.5859 87.024 70.0019 85.136H68.4019C68.1299 86.24 67.2979 86.896 66.0979 86.896C64.6739 86.896 63.8099 85.888 63.6819 84.16H70.0019C70.2899 81.408 68.6099 79.36 66.0819 79.36C63.7459 79.36 62.0339 81.2 62.0339 83.712C62.0339 86.384 63.6819 88.16 66.1299 88.16ZM66.0499 80.576C67.3619 80.576 68.2099 81.52 68.2899 83.088H63.6979C63.8739 81.504 64.7539 80.576 66.0499 80.576ZM79.916 83.76C79.916 81.184 78.428 79.36 76.156 79.36C75.004 79.36 74.028 79.936 73.436 80.976V76.512H71.82V88H73.324V86.48C73.932 87.552 74.956 88.16 76.156 88.16C78.444 88.16 79.916 86.304 79.916 83.76ZM78.236 83.76C78.236 85.648 77.228 86.72 75.836 86.72C74.46 86.72 73.436 85.6 73.436 83.728C73.436 81.824 74.492 80.784 75.836 80.784C77.228 80.784 78.236 81.84 78.236 83.76ZM88.8581 88C92.4421 88 94.6341 85.52 94.6341 82.208C94.6341 78.848 92.5221 76.512 88.8581 76.512H85.2261V88H88.8581ZM86.9861 78.032H88.7781C91.4341 78.032 92.8421 79.616 92.8421 82.208C92.8421 84.848 91.4181 86.48 88.7781 86.48H86.9861V78.032ZM99.9361 88.16C101.936 88.16 103.392 87.024 103.808 85.136H102.208C101.936 86.24 101.104 86.896 99.9041 86.896C98.4801 86.896 97.6161 85.888 97.4881 84.16H103.808C104.096 81.408 102.416 79.36 99.8881 79.36C97.5521 79.36 95.8401 81.2 95.8401 83.712C95.8401 86.384 97.4881 88.16 99.9361 88.16ZM99.8561 80.576C101.168 80.576 102.016 81.52 102.096 83.088H97.5041C97.6801 81.504 98.5601 80.576 99.8561 80.576ZM112.401 79.52H110.753L108.369 86.144L106.017 79.52H104.273L107.457 88H109.217L112.401 79.52ZM116.87 88.16C118.87 88.16 120.326 87.024 120.742 85.136H119.142C118.87 86.24 118.038 86.896 116.838 86.896C115.414 86.896 114.55 85.888 114.422 84.16H120.742C121.03 81.408 119.35 79.36 116.822 79.36C114.486 79.36 112.774 81.2 112.774 83.712C112.774 86.384 114.422 88.16 116.87 88.16ZM116.79 80.576C118.102 80.576 118.95 81.52 119.03 83.088H114.438C114.614 81.504 115.494 80.576 116.79 80.576ZM124.193 88V76.512H122.561V88H124.193ZM130.088 88.16C132.488 88.16 134.248 86.272 134.248 83.76C134.248 81.248 132.488 79.36 130.088 79.36C127.688 79.36 125.928 81.248 125.928 83.76C125.928 86.272 127.688 88.16 130.088 88.16ZM130.088 86.736C128.696 86.736 127.608 85.616 127.608 83.76C127.608 81.904 128.696 80.8 130.088 80.8C131.48 80.8 132.584 81.904 132.584 83.76C132.584 85.616 131.48 86.736 130.088 86.736ZM144.091 83.76C144.091 81.2 142.603 79.36 140.347 79.36C139.147 79.36 138.107 79.984 137.499 81.072V79.52H135.995V91.088H137.611V86.56C138.219 87.584 139.195 88.16 140.347 88.16C142.619 88.16 144.091 86.32 144.091 83.76ZM142.411 83.76C142.411 85.664 141.403 86.72 140.011 86.72C138.651 86.72 137.611 85.632 137.611 83.76C137.611 81.856 138.667 80.784 140.011 80.784C141.403 80.784 142.411 81.856 142.411 83.76ZM147.445 88V83.136C147.445 81.712 148.325 80.784 149.445 80.784C150.629 80.784 151.253 81.616 151.253 83.024V88H152.869V83.136C152.869 81.712 153.765 80.784 154.869 80.784C156.053 80.784 156.677 81.616 156.677 83.024V88H158.293V82.512C158.293 80.496 157.173 79.36 155.429 79.36C154.133 79.36 153.157 80.032 152.565 81.12C152.181 80 151.237 79.36 149.989 79.36C148.821 79.36 147.909 79.952 147.333 80.928V79.52H145.829V88H147.445ZM164.042 88.16C166.042 88.16 167.498 87.024 167.914 85.136H166.314C166.042 86.24 165.21 86.896 164.01 86.896C162.586 86.896 161.722 85.888 161.594 84.16H167.914C168.202 81.408 166.522 79.36 163.994 79.36C161.658 79.36 159.946 81.2 159.946 83.712C159.946 86.384 161.594 88.16 164.042 88.16ZM163.962 80.576C165.274 80.576 166.122 81.52 166.202 83.088H161.61C161.786 81.504 162.666 80.576 163.962 80.576ZM171.349 83.216C171.349 81.712 172.277 80.784 173.381 80.784C174.581 80.784 175.221 81.6 175.221 83.056V88H176.837V82.512C176.837 80.48 175.685 79.36 173.941 79.36C172.773 79.36 171.813 79.984 171.237 80.928V79.52H169.733V88H171.349V83.216ZM183.835 86.432C183.499 86.592 183.163 86.656 182.779 86.656C181.915 86.656 181.355 86.24 181.355 85.072V80.896H183.915V79.52H181.355V77.008H179.739V79.52H177.867V80.896H179.739V85.44C179.739 87.312 180.827 88.16 182.395 88.16C182.907 88.16 183.339 88.08 183.835 87.856V86.432Z" fill="#000"/></svg>