<svg xmlns="http://www.w3.org/2000/svg" width="314" height="144" viewBox="0 0 314 144" fill="none"><rect width="314" height="144" rx="10" fill="#fff"/><path d="M166.375 75C156.375 75 153.875 66.6667 153.875 62.5H128.875V68.75C128.875 72.2018 131.673 75 135.125 75H166.375ZM166.375 75C171.553 75 175.75 70.8027 175.75 65.625V43.75M175.75 25H141.375C137.923 25 135.125 27.7982 135.125 31.25V62.5M175.75 25H178.875C182.327 25 185.125 27.7982 185.125 31.25V37.5C185.125 40.9518 182.327 43.75 178.875 43.75H175.75M175.75 25V43.75M163.25 37.5H147.625M153.875 50H147.625" stroke="#000" stroke-width="4" stroke-linecap="round" stroke-linejoin="round"/><path d="M93.9027 109.64C93.9027 107.928 92.7987 107.064 90.8307 106.664L89.1347 106.328C88.0627 106.104 87.1187 105.72 87.1187 104.632C87.1187 103.64 87.9347 102.76 89.4227 102.76C90.8627 102.76 91.8547 103.72 91.9507 105.096H93.7427C93.5987 102.808 91.7907 101.352 89.4067 101.352C87.0227 101.352 85.3267 102.808 85.3267 104.744C85.3267 106.696 86.7987 107.512 88.4147 107.832L90.0787 108.152C91.4067 108.44 92.0307 108.92 92.0307 109.88C92.0307 111.064 90.9427 111.752 89.4867 111.752C87.7267 111.752 86.7987 110.808 86.7187 109.352H84.9267C85.0707 111.64 86.7507 113.16 89.5187 113.16C92.3027 113.16 93.9027 111.64 93.9027 109.64ZM100.727 111.432C100.391 111.592 100.055 111.656 99.6714 111.656C98.8074 111.656 98.2474 111.24 98.2474 110.072V105.896H100.807V104.52H98.2474V102.008H96.6314V104.52H94.7594V105.896H96.6314V110.44C96.6314 112.312 97.7194 113.16 99.2874 113.16C99.7994 113.16 100.231 113.08 100.727 112.856V111.432ZM107.586 113H108.93V107.56C108.93 105.544 107.714 104.36 105.618 104.36C103.634 104.36 102.274 105.624 102.194 107.528H103.666C103.714 106.344 104.434 105.64 105.618 105.64C106.738 105.64 107.394 106.328 107.394 107.544V108.168C106.706 108.088 106.306 108.072 105.81 108.072C103.282 108.072 101.954 108.936 101.954 110.6C101.954 112.152 103.106 113.16 104.866 113.16C106.114 113.16 107.058 112.632 107.586 111.688V113ZM103.49 110.552C103.49 109.56 104.29 109.08 105.906 109.08C106.322 109.08 106.77 109.096 107.394 109.176V109.864C107.394 111.16 106.546 112.008 105.186 112.008C104.146 112.008 103.49 111.432 103.49 110.552ZM112.806 108.664C112.806 106.792 114.134 105.992 115.958 106.088V104.408C114.566 104.408 113.286 105.144 112.694 106.312V104.52H111.19V113H112.806V108.664ZM122.637 111.432C122.301 111.592 121.965 111.656 121.581 111.656C120.717 111.656 120.157 111.24 120.157 110.072V105.896H122.717V104.52H120.157V102.008H118.541V104.52H116.669V105.896H118.541V110.44C118.541 112.312 119.629 113.16 121.197 113.16C121.709 113.16 122.141 113.08 122.637 112.856V111.432ZM129.655 109.512C129.655 110.84 128.775 111.736 127.687 111.736C126.631 111.736 125.895 111.128 125.895 109.656V104.52H124.279V109.976C124.279 112.152 125.463 113.16 127.175 113.16C128.327 113.16 129.319 112.536 129.767 111.656V113H131.271V104.52H129.655V109.512ZM141.711 108.76C141.711 106.2 140.223 104.36 137.967 104.36C136.767 104.36 135.727 104.984 135.119 106.072V104.52H133.615V116.088H135.231V111.56C135.839 112.584 136.815 113.16 137.967 113.16C140.239 113.16 141.711 111.32 141.711 108.76ZM140.031 108.76C140.031 110.664 139.023 111.72 137.631 111.72C136.271 111.72 135.231 110.632 135.231 108.76C135.231 106.856 136.287 105.784 137.631 105.784C139.023 105.784 140.031 106.856 140.031 108.76ZM142.749 116.088L149.821 101.512H148.221L141.133 116.088H142.749ZM154.419 113C158.003 113 160.195 110.52 160.195 107.208C160.195 103.848 158.083 101.512 154.419 101.512H150.787V113H154.419ZM152.547 103.032H154.339C156.995 103.032 158.403 104.616 158.403 107.208C158.403 109.848 156.979 111.48 154.339 111.48H152.547V103.032ZM168.713 111.56H164.153L166.329 109.096C168.105 107.208 168.569 106.344 168.569 105.112C168.569 103.336 167.097 102.024 165.081 102.024C162.937 102.024 161.433 103.464 161.433 105.464H163.017C163.017 104.264 163.817 103.48 165.017 103.48C166.121 103.48 166.873 104.232 166.873 105.304C166.873 106.28 166.377 107.032 165.097 108.424L161.721 112.072V113H168.713V111.56ZM175.776 113.24C178.656 113.24 180.96 111.32 181.392 108.472H179.52C179.2 110.328 177.696 111.656 175.792 111.656C173.52 111.656 171.92 109.816 171.92 107.24C171.92 104.696 173.52 102.856 175.792 102.856C177.696 102.856 179.2 104.168 179.52 106.024H181.392C180.96 103.192 178.656 101.272 175.776 101.272C172.576 101.272 170.096 103.864 170.096 107.24C170.096 110.632 172.576 113.24 175.776 113.24ZM194.893 109.704C194.893 108.392 194.125 107.416 192.701 107.016C193.805 106.536 194.461 105.608 194.461 104.52C194.461 102.584 193.069 101.512 190.749 101.512H186.765V113H190.973C193.357 113 194.893 111.8 194.893 109.704ZM190.637 102.92C192.029 102.92 192.781 103.576 192.781 104.648C192.781 105.72 192.029 106.376 190.637 106.376H188.381V102.92H190.637ZM190.861 107.784C192.365 107.784 193.213 108.488 193.213 109.656C193.213 110.872 192.365 111.592 190.861 111.592H188.381V107.784H190.861ZM198.509 108.664C198.509 106.792 199.837 105.992 201.661 106.088V104.408C200.269 104.408 198.989 105.144 198.397 106.312V104.52H196.893V113H198.509V108.664ZM208.176 113H209.52V107.56C209.52 105.544 208.304 104.36 206.208 104.36C204.224 104.36 202.864 105.624 202.784 107.528H204.256C204.304 106.344 205.024 105.64 206.208 105.64C207.328 105.64 207.984 106.328 207.984 107.544V108.168C207.296 108.088 206.896 108.072 206.4 108.072C203.872 108.072 202.544 108.936 202.544 110.6C202.544 112.152 203.696 113.16 205.456 113.16C206.704 113.16 207.648 112.632 208.176 111.688V113ZM204.08 110.552C204.08 109.56 204.88 109.08 206.496 109.08C206.912 109.08 207.36 109.096 207.984 109.176V109.864C207.984 111.16 207.136 112.008 205.776 112.008C204.736 112.008 204.08 111.432 204.08 110.552ZM213.397 108.216C213.397 106.712 214.325 105.784 215.429 105.784C216.629 105.784 217.269 106.6 217.269 108.056V113H218.885V107.512C218.885 105.48 217.733 104.36 215.989 104.36C214.821 104.36 213.861 104.984 213.285 105.928V104.52H211.781V113H213.397V108.216ZM220.523 108.76C220.523 111.304 221.995 113.16 224.283 113.16C225.483 113.16 226.507 112.552 227.115 111.48V113H228.619V101.512H227.003V105.976C226.411 104.936 225.419 104.36 224.283 104.36C221.995 104.36 220.523 106.184 220.523 108.76ZM222.203 108.76C222.203 106.84 223.195 105.784 224.603 105.784C225.947 105.784 227.003 106.824 227.003 108.728C227.003 110.6 225.979 111.72 224.603 111.72C223.195 111.72 222.203 110.648 222.203 108.76Z" fill="#000"/></svg>