<svg xmlns="http://www.w3.org/2000/svg" width="231" height="119" viewBox="0 0 231 119" fill="none"><rect width="231" height="119" rx="10" fill="#fff"/><circle cx="116" cy="40" r="15" stroke="#000" stroke-width="3" stroke-linecap="round" stroke-linejoin="round"/><path d="M109.333 26.6666V31.3333C109.333 32.4379 110.229 33.3333 111.333 33.3333H115.667C116.771 33.3333 117.667 34.2287 117.667 35.3333V38C117.667 39.1045 118.562 40 119.667 40H122.333C123.438 40 124.333 39.1045 124.333 38V35.3333C124.333 34.2287 125.229 33.3333 126.333 33.3333H129.333M129.333 46.6666H123C121.895 46.6666 121 47.5621 121 48.6666V53.3333M114.333 53.3333V48.6666C114.333 47.5621 113.438 46.6666 112.333 46.6666H109.667C108.562 46.6666 107.667 45.7712 107.667 44.6666V42C107.667 40.8954 106.771 40 105.667 40H101" stroke="#000" stroke-width="3" stroke-linecap="round" stroke-linejoin="round"/><path d="M56.88 88C60.464 88 62.656 85.52 62.656 82.208C62.656 78.848 60.544 76.512 56.88 76.512H53.248V88H56.88ZM55.008 78.032H56.8C59.456 78.032 60.864 79.616 60.864 82.208C60.864 84.848 59.44 86.48 56.8 86.48H55.008V78.032ZM66.438 77.552C66.438 76.928 65.958 76.48 65.27 76.48C64.582 76.48 64.086 76.928 64.086 77.552C64.086 78.16 64.582 78.624 65.27 78.624C65.958 78.624 66.438 78.16 66.438 77.552ZM66.086 88V79.52H64.47V88H66.086ZM71.8214 91.264C74.2214 91.264 75.6454 89.936 75.6454 87.712V79.52H74.1414V81.024C73.5654 79.952 72.6054 79.36 71.3894 79.36C69.2614 79.36 67.8214 81.056 67.8214 83.584C67.8214 86.08 69.3254 87.824 71.4374 87.824C72.5894 87.824 73.5494 87.232 74.0294 86.208V87.744C74.0294 89.2 73.2614 89.984 71.8054 89.984C70.4934 89.984 69.7254 89.344 69.6294 88.16H68.0614C68.1574 90.08 69.5974 91.264 71.8214 91.264ZM69.4534 83.584C69.4534 81.84 70.3334 80.752 71.7254 80.752C73.1174 80.752 74.0294 81.872 74.0294 83.632C74.0294 85.312 73.1014 86.416 71.7254 86.416C70.3174 86.416 69.4534 85.344 69.4534 83.584ZM79.9505 77.552C79.9505 76.928 79.4705 76.48 78.7825 76.48C78.0945 76.48 77.5985 76.928 77.5985 77.552C77.5985 78.16 78.0945 78.624 78.7825 78.624C79.4705 78.624 79.9505 78.16 79.9505 77.552ZM79.5985 88V79.52H77.9825V88H79.5985ZM86.7259 86.432C86.3899 86.592 86.0539 86.656 85.6699 86.656C84.8059 86.656 84.2459 86.24 84.2459 85.072V80.896H86.8059V79.52H84.2459V77.008H82.6299V79.52H80.7579V80.896H82.6299V85.44C82.6299 87.312 83.7179 88.16 85.2859 88.16C85.7979 88.16 86.2299 88.08 86.7259 87.856V86.432ZM93.5841 88H94.9281V82.56C94.9281 80.544 93.7121 79.36 91.6161 79.36C89.6321 79.36 88.2721 80.624 88.1921 82.528H89.6641C89.7121 81.344 90.4321 80.64 91.6161 80.64C92.7361 80.64 93.3921 81.328 93.3921 82.544V83.168C92.7041 83.088 92.3041 83.072 91.8081 83.072C89.2801 83.072 87.9521 83.936 87.9521 85.6C87.9521 87.152 89.1041 88.16 90.8641 88.16C92.1121 88.16 93.0561 87.632 93.5841 86.688V88ZM89.4881 85.552C89.4881 84.56 90.2881 84.08 91.9041 84.08C92.3201 84.08 92.7681 84.096 93.3921 84.176V84.864C93.3921 86.16 92.5441 87.008 91.1841 87.008C90.1441 87.008 89.4881 86.432 89.4881 85.552ZM98.8207 88V76.512H97.1887V88H98.8207ZM109.983 88H111.487L115.135 79.2V88H116.767V76.512H114.591L110.751 85.84L106.895 76.512H104.735V88H106.351V79.216L109.983 88ZM124.359 88H125.703V82.56C125.703 80.544 124.487 79.36 122.391 79.36C120.407 79.36 119.047 80.624 118.967 82.528H120.439C120.487 81.344 121.207 80.64 122.391 80.64C123.511 80.64 124.167 81.328 124.167 82.544V83.168C123.479 83.088 123.079 83.072 122.583 83.072C120.055 83.072 118.727 83.936 118.727 85.6C118.727 87.152 119.879 88.16 121.639 88.16C122.887 88.16 123.831 87.632 124.359 86.688V88ZM120.263 85.552C120.263 84.56 121.063 84.08 122.679 84.08C123.095 84.08 123.543 84.096 124.167 84.176V84.864C124.167 86.16 123.319 87.008 121.959 87.008C120.919 87.008 120.263 86.432 120.263 85.552ZM129.58 83.664C129.58 81.792 130.908 80.992 132.732 81.088V79.408C131.34 79.408 130.06 80.144 129.468 81.312V79.52H127.964V88H129.58V83.664ZM135.727 88V83.984L139.551 88H141.631L137.343 83.632L141.263 79.52H139.359L135.727 83.312V76.512H134.111V88H135.727ZM145.949 88.16C147.949 88.16 149.405 87.024 149.821 85.136H148.221C147.949 86.24 147.117 86.896 145.917 86.896C144.493 86.896 143.629 85.888 143.501 84.16H149.821C150.109 81.408 148.429 79.36 145.901 79.36C143.565 79.36 141.853 81.2 141.853 83.712C141.853 86.384 143.501 88.16 145.949 88.16ZM145.869 80.576C147.181 80.576 148.029 81.52 148.109 83.088H143.517C143.693 81.504 144.573 80.576 145.869 80.576ZM156.392 86.432C156.056 86.592 155.72 86.656 155.336 86.656C154.472 86.656 153.912 86.24 153.912 85.072V80.896H156.472V79.52H153.912V77.008H152.296V79.52H150.424V80.896H152.296V85.44C152.296 87.312 153.384 88.16 154.952 88.16C155.464 88.16 155.896 88.08 156.392 87.856V86.432ZM160.082 77.552C160.082 76.928 159.602 76.48 158.914 76.48C158.226 76.48 157.73 76.928 157.73 77.552C157.73 78.16 158.226 78.624 158.914 78.624C159.602 78.624 160.082 78.16 160.082 77.552ZM159.73 88V79.52H158.114V88H159.73ZM163.689 83.216C163.689 81.712 164.617 80.784 165.721 80.784C166.921 80.784 167.561 81.6 167.561 83.056V88H169.177V82.512C169.177 80.48 168.025 79.36 166.281 79.36C165.113 79.36 164.153 79.984 163.577 80.928V79.52H162.073V88H163.689V83.216ZM174.815 91.264C177.215 91.264 178.639 89.936 178.639 87.712V79.52H177.135V81.024C176.559 79.952 175.599 79.36 174.383 79.36C172.255 79.36 170.815 81.056 170.815 83.584C170.815 86.08 172.319 87.824 174.431 87.824C175.583 87.824 176.543 87.232 177.023 86.208V87.744C177.023 89.2 176.255 89.984 174.799 89.984C173.487 89.984 172.719 89.344 172.623 88.16H171.055C171.151 90.08 172.591 91.264 174.815 91.264ZM172.447 83.584C172.447 81.84 173.327 80.752 174.719 80.752C176.111 80.752 177.023 81.872 177.023 83.632C177.023 85.312 176.095 86.416 174.719 86.416C173.311 86.416 172.447 85.344 172.447 83.584Z" fill="#000"/></svg>