<svg xmlns="http://www.w3.org/2000/svg" width="231" height="119" viewBox="0 0 231 119" fill="none"><rect width="231" height="119" rx="10" fill="#fff"/><path d="M102.667 33.3333L116 25L122.667 29.1667M102.667 33.3333V46.6667L116 55M102.667 33.3333L109.333 37.5M116 41.6667L129.333 33.3333M116 41.6667V55M116 41.6667L109.333 37.5M129.333 33.3333V46.6667L116 55M129.333 33.3333L122.667 29.1667M109.333 37.5L122.667 29.1667" stroke="#000" stroke-width="3" stroke-linecap="round" stroke-linejoin="round"/><path d="M82.232 84C84.808 84 86.472 82.64 86.472 80.224C86.472 77.824 84.808 76.512 82.232 76.512H78.248V88H80.008V84H82.232ZM82.216 78C83.768 78 84.712 78.816 84.712 80.24C84.712 81.664 83.768 82.512 82.216 82.512H80.008V78H82.216ZM93.1841 88H94.5281V82.56C94.5281 80.544 93.3121 79.36 91.2161 79.36C89.2321 79.36 87.8721 80.624 87.7921 82.528H89.2641C89.3121 81.344 90.0321 80.64 91.2161 80.64C92.3361 80.64 92.9921 81.328 92.9921 82.544V83.168C92.3041 83.088 91.9041 83.072 91.4081 83.072C88.8801 83.072 87.5521 83.936 87.5521 85.6C87.5521 87.152 88.7041 88.16 90.4641 88.16C91.7121 88.16 92.6561 87.632 93.1841 86.688V88ZM89.0881 85.552C89.0881 84.56 89.8881 84.08 91.5041 84.08C91.9201 84.08 92.3681 84.096 92.9921 84.176V84.864C92.9921 86.16 92.1441 87.008 90.7841 87.008C89.7441 87.008 89.0881 86.432 89.0881 85.552ZM100.133 88.176C102.261 88.176 103.765 86.8 104.053 84.56H102.373C102.181 85.936 101.349 86.736 100.149 86.736C98.7568 86.736 97.8448 85.568 97.8448 83.76C97.8448 81.968 98.7568 80.784 100.149 80.784C101.333 80.784 102.181 81.6 102.357 82.96H104.053C103.749 80.752 102.229 79.36 100.133 79.36C97.8448 79.36 96.1808 81.2 96.1808 83.76C96.1808 86.352 97.8128 88.176 100.133 88.176ZM107.395 88V83.984L111.219 88H113.299L109.011 83.632L112.931 79.52H111.027L107.395 83.312V76.512H105.779V88H107.395ZM119.437 88H120.781V82.56C120.781 80.544 119.565 79.36 117.469 79.36C115.485 79.36 114.125 80.624 114.045 82.528H115.517C115.565 81.344 116.285 80.64 117.469 80.64C118.589 80.64 119.245 81.328 119.245 82.544V83.168C118.557 83.088 118.157 83.072 117.661 83.072C115.133 83.072 113.805 83.936 113.805 85.6C113.805 87.152 114.957 88.16 116.717 88.16C117.965 88.16 118.909 87.632 119.437 86.688V88ZM115.341 85.552C115.341 84.56 116.141 84.08 117.757 84.08C118.173 84.08 118.621 84.096 119.245 84.176V84.864C119.245 86.16 118.397 87.008 117.037 87.008C115.997 87.008 115.341 86.432 115.341 85.552ZM126.434 91.264C128.834 91.264 130.258 89.936 130.258 87.712V79.52H128.754V81.024C128.178 79.952 127.218 79.36 126.002 79.36C123.874 79.36 122.434 81.056 122.434 83.584C122.434 86.08 123.938 87.824 126.05 87.824C127.202 87.824 128.162 87.232 128.642 86.208V87.744C128.642 89.2 127.874 89.984 126.418 89.984C125.106 89.984 124.338 89.344 124.242 88.16H122.674C122.77 90.08 124.21 91.264 126.434 91.264ZM124.066 83.584C124.066 81.84 124.946 80.752 126.338 80.752C127.73 80.752 128.642 81.872 128.642 83.632C128.642 85.312 127.714 86.416 126.338 86.416C124.93 86.416 124.066 85.344 124.066 83.584ZM134.563 77.552C134.563 76.928 134.083 76.48 133.395 76.48C132.707 76.48 132.211 76.928 132.211 77.552C132.211 78.16 132.707 78.624 133.395 78.624C134.083 78.624 134.563 78.16 134.563 77.552ZM134.211 88V79.52H132.595V88H134.211ZM138.17 83.216C138.17 81.712 139.098 80.784 140.202 80.784C141.402 80.784 142.042 81.6 142.042 83.056V88H143.658V82.512C143.658 80.48 142.506 79.36 140.762 79.36C139.594 79.36 138.634 79.984 138.058 80.928V79.52H136.554V88H138.17V83.216ZM149.296 91.264C151.696 91.264 153.12 89.936 153.12 87.712V79.52H151.616V81.024C151.04 79.952 150.08 79.36 148.864 79.36C146.736 79.36 145.296 81.056 145.296 83.584C145.296 86.08 146.8 87.824 148.912 87.824C150.064 87.824 151.024 87.232 151.504 86.208V87.744C151.504 89.2 150.736 89.984 149.28 89.984C147.968 89.984 147.2 89.344 147.104 88.16H145.536C145.632 90.08 147.072 91.264 149.296 91.264ZM146.928 83.584C146.928 81.84 147.808 80.752 149.2 80.752C150.592 80.752 151.504 81.872 151.504 83.632C151.504 85.312 150.576 86.416 149.2 86.416C147.792 86.416 146.928 85.344 146.928 83.584Z" fill="#000"/></svg>