<svg xmlns="http://www.w3.org/2000/svg" width="231" height="119" viewBox="0 0 231 119" fill="none"><rect width="231" height="119" rx="10" fill="#fff"/><path d="M99.125 53V32.625C99.125 31.5204 100.02 30.625 101.125 30.625H105.555C106.223 30.625 106.848 30.2908 107.219 29.7344L109.781 25.8906C110.152 25.3342 110.777 25 111.445 25H120.555C121.223 25 121.848 25.3342 122.219 25.8906L124.781 29.7344C125.152 30.2908 125.777 30.625 126.445 30.625H130.875C131.98 30.625 132.875 31.5204 132.875 32.625V53C132.875 54.1046 131.98 55 130.875 55H101.125C100.02 55 99.125 54.1046 99.125 53Z" stroke="#000" stroke-width="3" stroke-linecap="round" stroke-linejoin="round"/><circle cx="116" cy="41.875" r="5.625" stroke="#000" stroke-width="3" stroke-linecap="round" stroke-linejoin="round"/><path d="M73.232 84C75.808 84 77.472 82.64 77.472 80.224C77.472 77.824 75.808 76.512 73.232 76.512H69.248V88H71.008V84H73.232ZM73.216 78C74.768 78 75.712 78.816 75.712 80.24C75.712 81.664 74.768 82.512 73.216 82.512H71.008V78H73.216ZM80.8204 83.216C80.8204 81.712 81.7484 80.784 82.8524 80.784C84.0524 80.784 84.6924 81.6 84.6924 83.056V88H86.3084V82.512C86.3084 80.48 85.1564 79.36 83.4124 79.36C82.2444 79.36 81.3804 79.968 80.8204 80.88V76.512H79.2044V88H80.8204V83.216ZM92.1064 88.16C94.5064 88.16 96.2664 86.272 96.2664 83.76C96.2664 81.248 94.5064 79.36 92.1064 79.36C89.7064 79.36 87.9464 81.248 87.9464 83.76C87.9464 86.272 89.7064 88.16 92.1064 88.16ZM92.1064 86.736C90.7144 86.736 89.6264 85.616 89.6264 83.76C89.6264 81.904 90.7144 80.8 92.1064 80.8C93.4984 80.8 94.6024 81.904 94.6024 83.76C94.6024 85.616 93.4984 86.736 92.1064 86.736ZM102.641 86.432C102.305 86.592 101.969 86.656 101.585 86.656C100.721 86.656 100.161 86.24 100.161 85.072V80.896H102.721V79.52H100.161V77.008H98.5455V79.52H96.6735V80.896H98.5455V85.44C98.5455 87.312 99.6335 88.16 101.201 88.16C101.713 88.16 102.145 88.08 102.641 87.856V86.432ZM107.681 88.16C110.081 88.16 111.841 86.272 111.841 83.76C111.841 81.248 110.081 79.36 107.681 79.36C105.281 79.36 103.521 81.248 103.521 83.76C103.521 86.272 105.281 88.16 107.681 88.16ZM107.681 86.736C106.289 86.736 105.201 85.616 105.201 83.76C105.201 81.904 106.289 80.8 107.681 80.8C109.073 80.8 110.177 81.904 110.177 83.76C110.177 85.616 109.073 86.736 107.681 86.736ZM116.825 91.264C119.225 91.264 120.649 89.936 120.649 87.712V79.52H119.145V81.024C118.569 79.952 117.609 79.36 116.393 79.36C114.265 79.36 112.825 81.056 112.825 83.584C112.825 86.08 114.329 87.824 116.441 87.824C117.593 87.824 118.553 87.232 119.033 86.208V87.744C119.033 89.2 118.265 89.984 116.809 89.984C115.497 89.984 114.729 89.344 114.633 88.16H113.065C113.161 90.08 114.601 91.264 116.825 91.264ZM114.457 83.584C114.457 81.84 115.337 80.752 116.729 80.752C118.121 80.752 119.033 81.872 119.033 83.632C119.033 85.312 118.105 86.416 116.729 86.416C115.321 86.416 114.457 85.344 114.457 83.584ZM124.602 83.664C124.602 81.792 125.93 80.992 127.754 81.088V79.408C126.362 79.408 125.082 80.144 124.49 81.312V79.52H122.986V88H124.602V83.664ZM134.269 88H135.613V82.56C135.613 80.544 134.397 79.36 132.301 79.36C130.317 79.36 128.957 80.624 128.877 82.528H130.349C130.397 81.344 131.117 80.64 132.301 80.64C133.421 80.64 134.077 81.328 134.077 82.544V83.168C133.389 83.088 132.989 83.072 132.493 83.072C129.965 83.072 128.637 83.936 128.637 85.6C128.637 87.152 129.789 88.16 131.549 88.16C132.797 88.16 133.741 87.632 134.269 86.688V88ZM130.173 85.552C130.173 84.56 130.973 84.08 132.589 84.08C133.005 84.08 133.453 84.096 134.077 84.176V84.864C134.077 86.16 133.229 87.008 131.869 87.008C130.829 87.008 130.173 86.432 130.173 85.552ZM145.969 83.76C145.969 81.2 144.481 79.36 142.225 79.36C141.025 79.36 139.985 79.984 139.377 81.072V79.52H137.873V91.088H139.489V86.56C140.097 87.584 141.073 88.16 142.225 88.16C144.497 88.16 145.969 86.32 145.969 83.76ZM144.289 83.76C144.289 85.664 143.281 86.72 141.889 86.72C140.529 86.72 139.489 85.632 139.489 83.76C139.489 81.856 140.545 80.784 141.889 80.784C143.281 80.784 144.289 81.856 144.289 83.76ZM149.324 83.216C149.324 81.712 150.252 80.784 151.356 80.784C152.556 80.784 153.196 81.6 153.196 83.056V88H154.812V82.512C154.812 80.48 153.66 79.36 151.916 79.36C150.748 79.36 149.884 79.968 149.324 80.88V76.512H147.708V88H149.324V83.216ZM163.785 79.52H162.153L159.865 85.984L157.401 79.52H155.657L159.001 87.888L157.785 91.088H159.545L163.785 79.52Z" fill="#000"/></svg>