<svg xmlns="http://www.w3.org/2000/svg" xmlns:xlink="http://www.w3.org/1999/xlink" id="Layer_1" x="0px" y="0px" viewBox="0 0 231 119" style="enable-background:new 0 0 231 119;" xml:space="preserve"><style>
.st0{
    fill:#ffffff;
}	
.st1{
    fill:none;
    stroke:#000000;
    stroke-width:3;
    stroke-linecap:round;
    stroke-linejoin:round;
}	
.st2{
    fill:#000000;
}</style><path class="st0" d="M10,0h211c5.5,0,10,4.5,10,10v99c0,5.5-4.5,10-10,10H10c-5.5,0-10-4.5-10-10V10C0,4.5,4.5,0,10,0z"/><path class="st1" d="M113.4,45.9l9.5-9.5c1.1-1.1,1.8-2.5,2.2-3.9l0.5-2.2l-2.2,0.5c-1.5,0.3-2.9,1.1-3.9,2.2l-6.9,6.9 M113.4,45.9 l2.7,4.4c1.4-1.4,3.5-3.5-0.1-7L113.4,45.9z M113.4,45.9l-3.5-3.5 M109.9,42.4l-4.4-2.7c1.4-1.4,3.5-3.5,7,0.1 M109.9,42.4l2.6-2.6  M107.3,45c0,0-2.1,3.1-0.8,4.4c1.2,1.2,4.4-0.8,4.4-0.8"/><g>	<path class="st2" d="M35.5,76.8c2.2,0,3.7,1.2,3.8,3.3h-1.6c-0.1-1.2-0.9-1.8-2.2-1.8C34,78.2,33,79,33,80.1c0,0.9,0.5,1.5,1.6,1.8  l1.9,0.5c1.9,0.4,2.9,1.5,2.9,3.1c0,2.1-1.6,3.4-4.1,3.4c-2.4,0-4-1.2-4.1-3.3h1.6c0,1.1,1,1.8,2.4,1.8c1.6,0,2.5-0.7,2.5-1.9  c0-0.9-0.5-1.5-1.6-1.8l-1.9-0.4c-1.9-0.4-2.9-1.5-2.9-3.2C31.4,78.2,33,76.8,35.5,76.8z"/>	<path class="st2" d="M44.8,80.6c2.4,0,4.1,1.7,4.1,4.2c0,2.4-1.7,4.2-4.1,4.2c-2.4,0-4.1-1.7-4.1-4.2  C40.7,82.3,42.4,80.6,44.8,80.6z M44.8,87.6c1.5,0,2.6-1.1,2.6-2.8S46.3,82,44.8,82c-1.5,0-2.6,1.1-2.6,2.8S43.3,87.6,44.8,87.6z"/>	<path class="st2" d="M54,80.6c2,0,3.4,1.1,3.7,2.9h-1.5C55.8,82.5,55,82,54,82c-1.4,0-2.4,1.1-2.4,2.8c0,1.7,0.9,2.8,2.4,2.8  c1.1,0,1.9-0.6,2.2-1.5h1.5c-0.3,1.7-1.8,2.9-3.7,2.9c-2.3,0-3.9-1.7-3.9-4.1C50.1,82.3,51.6,80.6,54,80.6z"/>	<path class="st2" d="M59,77.9c0-0.6,0.5-1,1-1c0.6,0,1,0.4,1,1c0,0.6-0.5,1-1,1C59.4,78.9,59,78.5,59,77.9z M59.2,80.8h1.5v7.9  h-1.5V80.8z"/>	<path class="st2" d="M62.6,86.5c0-1.5,1.1-2.4,2.9-2.5l2.5-0.2v-0.2c0-1.3-0.8-1.8-1.9-1.8c-1.3,0-2,0.6-2,1.5h-1.3  c0-1.7,1.4-2.7,3.4-2.7c2,0,3.3,1,3.3,3.2v5h-1.3L68,87.5c-0.4,0.9-1.5,1.5-2.8,1.5C63.6,88.9,62.6,88,62.6,86.5z M68,85.3v-0.4  l-2,0.2c-1.3,0.1-1.9,0.6-1.9,1.4c0,0.8,0.6,1.3,1.6,1.3C67.1,87.7,68,86.8,68,85.3z"/>	<path class="st2" d="M71.6,88.7V76.8h1.5v11.9H71.6z"/>	<path class="st2" d="M80.1,88.7V77h1.6l4,9.8l4-9.8h1.6v11.7h-1.6v-4.6c0-2.2,0-3,0.1-3.8l-3.4,8.4h-1.5l-3.4-8.4  c0.1,0.6,0.1,1.8,0.1,3.4v5H80.1z"/>	<path class="st2" d="M93.2,84.8c0-2.5,1.6-4.2,3.9-4.2c2.3,0,3.7,1.6,3.7,3.9v0.6l-6.1,0c0.1,1.7,1,2.6,2.5,2.6  c1.2,0,2-0.5,2.2-1.4h1.4c-0.4,1.7-1.7,2.7-3.7,2.7C94.8,88.9,93.2,87.2,93.2,84.8z M94.7,84.1h4.6c0-1.3-0.9-2.2-2.2-2.2  C95.7,81.9,94.9,82.7,94.7,84.1z"/>	<path class="st2" d="M102,84.8c0-2.4,1.4-4.2,3.8-4.2c1.2,0,2.2,0.5,2.8,1.5v-5.3h1.5v11.9h-1.4l-0.1-1.4c-0.5,1.1-1.6,1.6-2.8,1.6  C103.4,88.9,102,87.2,102,84.8z M108.5,84.8c0-1.6-1-2.8-2.5-2.8s-2.5,1.2-2.5,2.8c0,1.6,0.9,2.8,2.5,2.8S108.5,86.4,108.5,84.8z"/>	<path class="st2" d="M111.9,77.9c0-0.6,0.5-1,1-1s1,0.4,1,1c0,0.6-0.5,1-1,1S111.9,78.5,111.9,77.9z M112.2,80.8h1.5v7.9h-1.5V80.8  z"/>	<path class="st2" d="M115.5,86.5c0-1.5,1.1-2.4,2.9-2.5l2.5-0.2v-0.2c0-1.3-0.8-1.8-1.9-1.8c-1.3,0-2,0.6-2,1.5h-1.3  c0-1.7,1.4-2.7,3.4-2.7c2,0,3.3,1,3.3,3.2v5h-1.3l-0.2-1.3c-0.4,0.9-1.5,1.5-2.8,1.5C116.5,88.9,115.5,88,115.5,86.5z M121,85.3  v-0.4l-2,0.2c-1.3,0.1-1.9,0.6-1.9,1.4c0,0.8,0.6,1.3,1.6,1.3C120.1,87.7,121,86.8,121,85.3z"/>	<path class="st2" d="M129.2,88.7V77h1.6l4,9.8l4-9.8h1.6v11.7h-1.6v-4.6c0-2.2,0-3,0.1-3.8l-3.4,8.4h-1.5l-3.4-8.4  c0.1,0.6,0.1,1.8,0.1,3.4v5H129.2z"/>	<path class="st2" d="M142.5,86.5c0-1.5,1.1-2.4,2.9-2.5l2.5-0.2v-0.2c0-1.3-0.8-1.8-1.9-1.8c-1.3,0-2,0.6-2,1.5h-1.3  c0-1.7,1.4-2.7,3.4-2.7c2,0,3.3,1,3.3,3.2v5h-1.3l-0.2-1.3c-0.4,0.9-1.5,1.5-2.8,1.5C143.5,88.9,142.5,88,142.5,86.5z M148,85.3  v-0.4l-2,0.2c-1.3,0.1-1.9,0.6-1.9,1.4c0,0.8,0.6,1.3,1.6,1.3C147.1,87.7,148,86.8,148,85.3z"/>	<path class="st2" d="M156.1,82.1h-0.7c-1.4,0-2.3,0.9-2.3,2.4v4.2h-1.5v-7.9h1.4l0.1,1.2c0.3-0.8,1.1-1.4,2.2-1.4  c0.3,0,0.5,0,0.8,0.1V82.1z"/>	<path class="st2" d="M157.5,88.7V76.8h1.5v7.7l3.5-3.7h1.9l-3,3.2l3,4.8h-1.7l-2.3-3.7l-1.3,1.4v2.2H157.5z"/>	<path class="st2" d="M164.9,84.8c0-2.5,1.6-4.2,3.9-4.2c2.2,0,3.7,1.6,3.7,3.9v0.6l-6.1,0c0.1,1.7,1,2.6,2.5,2.6  c1.2,0,2-0.5,2.2-1.4h1.4c-0.4,1.7-1.7,2.7-3.7,2.7C166.5,88.9,164.9,87.2,164.9,84.8z M166.4,84.1h4.6c0-1.3-0.9-2.2-2.2-2.2  C167.4,81.9,166.6,82.7,166.4,84.1z"/>	<path class="st2" d="M174.8,88.7v-6.6h-1.6v-1.3h1.6v-2.5h1.5v2.5h1.6v1.3h-1.6v6.6H174.8z"/>	<path class="st2" d="M179,77.9c0-0.6,0.5-1,1-1s1,0.4,1,1c0,0.6-0.5,1-1,1S179,78.5,179,77.9z M179.2,80.8h1.5v7.9h-1.5V80.8z"/>	<path class="st2" d="M183,88.7v-7.9h1.4l0.2,1.2c0.5-0.9,1.5-1.4,2.6-1.4c2.1,0,3,1.3,3,3.3v4.8h-1.5v-4.5c0-1.6-0.7-2.2-1.9-2.2  c-1.4,0-2.2,1-2.2,2.6v4.2H183z"/>	<path class="st2" d="M195.5,80.6c1.3,0,2.3,0.6,2.8,1.6l0.1-1.3h1.4v7.6c0,2.5-1.5,4.1-4,4.1c-2.2,0-3.6-1.2-3.9-3.2h1.5  c0.2,1.2,1.1,1.8,2.4,1.8c1.5,0,2.5-1,2.5-2.5v-1.6c-0.5,0.9-1.6,1.5-2.8,1.5c-2.3,0-3.7-1.7-3.7-4  C191.8,82.3,193.2,80.6,195.5,80.6z M195.7,87.2c1.5,0,2.5-1.1,2.5-2.7c0-1.5-0.9-2.6-2.5-2.6c-1.5,0-2.4,1.2-2.4,2.6  C193.3,86,194.2,87.2,195.7,87.2z"/></g></svg>