<svg xmlns="http://www.w3.org/2000/svg" width="314" height="144" viewBox="0 0 314 144" fill="none"><rect width="314" height="144" rx="10" fill="#fff"/><path d="M159.293 67.9776L152.234 60.9189M159.293 67.9776L162.785 74.9996C164.562 73.2717 170.579 65.2203 166.315 60.9556M159.293 67.9776L166.315 60.9556M152.234 60.9189L159.293 53.8602L159.329 53.8234M152.234 60.9189L145.138 57.3528C146.94 55.6004 155.124 49.6176 159.329 53.8234M166.351 60.9189L166.315 60.9556M166.315 60.9556L175.002 52.2682C176.07 51.2003 176.814 49.8519 177.147 48.3789L178.704 41.5074L171.833 43.0641C170.36 43.3977 169.011 44.1416 167.943 45.2095L159.329 53.8234" stroke="#000" stroke-width="3" stroke-linecap="round" stroke-linejoin="round"/><path d="M131.198 53.3944C127.858 58.6765 126.579 62.8931 128.223 64.5371C129.685 65.999 133.181 65.1497 137.652 62.5948M155.903 28.6888C161.185 25.3487 165.402 24.07 167.046 25.714C169.256 27.924 166.184 34.7828 159.924 42.6297M133.294 55.1079C128.54 48.2956 129.203 38.8514 135.282 32.7725C141.36 26.6936 150.805 26.0312 157.617 30.7853" stroke="#000" stroke-width="3" stroke-linecap="round" stroke-linejoin="round"/><path d="M79.9186 111.464H74.3986V107.848H79.3266V106.312H74.3986V103.048H79.8066V101.512H72.6386V113H79.9186V111.464ZM82.8344 113L85.0744 109.624L87.3464 113H89.2024L86.2264 108.712L89.0104 104.52H87.2664L85.1704 107.72L83.0744 104.52H81.2024L84.0184 108.664L81.0104 113H82.8344ZM92.5693 102.552C92.5693 101.928 92.0893 101.48 91.4013 101.48C90.7133 101.48 90.2173 101.928 90.2173 102.552C90.2173 103.16 90.7133 103.624 91.4013 103.624C92.0893 103.624 92.5693 103.16 92.5693 102.552ZM92.2173 113V104.52H90.6013V113H92.2173ZM101.281 110.472C101.281 109.256 100.481 108.52 98.8006 108.216L97.3606 107.944C96.3366 107.752 95.9046 107.432 95.9046 106.744C95.9046 106.008 96.5926 105.576 97.6166 105.576C98.7526 105.576 99.5046 106.168 99.6006 107.192H101.153C101.009 105.448 99.6326 104.36 97.6006 104.36C95.6326 104.36 94.3366 105.4 94.3366 106.888C94.3366 108.168 95.2166 108.968 96.7846 109.272L98.1606 109.528C99.2166 109.736 99.6486 110.04 99.6486 110.744C99.6486 111.544 98.8966 111.944 97.7606 111.944C96.4646 111.944 95.6166 111.288 95.5526 110.232H94.0006C94.1606 112.056 95.4886 113.16 97.7286 113.16C99.9846 113.16 101.281 112.136 101.281 110.472ZM107.82 111.432C107.484 111.592 107.148 111.656 106.764 111.656C105.9 111.656 105.34 111.24 105.34 110.072V105.896H107.9V104.52H105.34V102.008H103.724V104.52H101.852V105.896H103.724V110.44C103.724 112.312 104.812 113.16 106.38 113.16C106.892 113.16 107.324 113.08 107.82 112.856V111.432ZM111.51 102.552C111.51 101.928 111.03 101.48 110.342 101.48C109.654 101.48 109.158 101.928 109.158 102.552C109.158 103.16 109.654 103.624 110.342 103.624C111.03 103.624 111.51 103.16 111.51 102.552ZM111.158 113V104.52H109.542V113H111.158ZM115.117 108.216C115.117 106.712 116.045 105.784 117.149 105.784C118.349 105.784 118.989 106.6 118.989 108.056V113H120.605V107.512C120.605 105.48 119.453 104.36 117.709 104.36C116.541 104.36 115.581 104.984 115.005 105.928V104.52H113.501V113H115.117V108.216ZM126.243 116.264C128.643 116.264 130.067 114.936 130.067 112.712V104.52H128.563V106.024C127.987 104.952 127.027 104.36 125.811 104.36C123.683 104.36 122.243 106.056 122.243 108.584C122.243 111.08 123.747 112.824 125.859 112.824C127.011 112.824 127.971 112.232 128.451 111.208V112.744C128.451 114.2 127.683 114.984 126.227 114.984C124.915 114.984 124.147 114.344 124.051 113.16H122.483C122.579 115.08 124.019 116.264 126.243 116.264ZM123.875 108.584C123.875 106.84 124.755 105.752 126.147 105.752C127.539 105.752 128.451 106.872 128.451 108.632C128.451 110.312 127.523 111.416 126.147 111.416C124.739 111.416 123.875 110.344 123.875 108.584ZM132.188 116.088L139.26 101.512H137.66L130.572 116.088H132.188ZM147.906 113H149.682V101.512H148.05V110.248L142.146 101.512H140.226V113H141.858V104.024L147.906 113ZM155.624 113.16C157.624 113.16 159.08 112.024 159.496 110.136H157.896C157.624 111.24 156.792 111.896 155.592 111.896C154.168 111.896 153.304 110.888 153.176 109.16H159.496C159.784 106.408 158.104 104.36 155.576 104.36C153.24 104.36 151.528 106.2 151.528 108.712C151.528 111.384 153.176 113.16 155.624 113.16ZM155.544 105.576C156.856 105.576 157.704 106.52 157.784 108.088H153.192C153.368 106.504 154.248 105.576 155.544 105.576ZM168.134 113H169.75L172.214 104.52H170.614L168.902 110.712L167.014 104.52H165.414L163.494 110.696L161.782 104.52H160.198L162.646 113H164.278L166.214 106.696L168.134 113ZM185.332 109.704C185.332 108.392 184.564 107.416 183.14 107.016C184.244 106.536 184.9 105.608 184.9 104.52C184.9 102.584 183.508 101.512 181.188 101.512H177.204V113H181.412C183.796 113 185.332 111.8 185.332 109.704ZM181.076 102.92C182.468 102.92 183.22 103.576 183.22 104.648C183.22 105.72 182.468 106.376 181.076 106.376H178.82V102.92H181.076ZM181.3 107.784C182.804 107.784 183.652 108.488 183.652 109.656C183.652 110.872 182.804 111.592 181.3 111.592H178.82V107.784H181.3ZM192.629 109.512C192.629 110.84 191.749 111.736 190.661 111.736C189.605 111.736 188.869 111.128 188.869 109.656V104.52H187.253V109.976C187.253 112.152 188.437 113.16 190.149 113.16C191.301 113.16 192.293 112.536 192.741 111.656V113H194.245V104.52H192.629V109.512ZM203.309 110.472C203.309 109.256 202.509 108.52 200.829 108.216L199.389 107.944C198.365 107.752 197.933 107.432 197.933 106.744C197.933 106.008 198.621 105.576 199.645 105.576C200.781 105.576 201.533 106.168 201.629 107.192H203.181C203.037 105.448 201.661 104.36 199.629 104.36C197.661 104.36 196.365 105.4 196.365 106.888C196.365 108.168 197.245 108.968 198.813 109.272L200.189 109.528C201.245 109.736 201.677 110.04 201.677 110.744C201.677 111.544 200.925 111.944 199.789 111.944C198.493 111.944 197.645 111.288 197.581 110.232H196.029C196.189 112.056 197.517 113.16 199.757 113.16C202.013 113.16 203.309 112.136 203.309 110.472ZM207.141 102.552C207.141 101.928 206.661 101.48 205.973 101.48C205.285 101.48 204.789 101.928 204.789 102.552C204.789 103.16 205.285 103.624 205.973 103.624C206.661 103.624 207.141 103.16 207.141 102.552ZM206.789 113V104.52H205.173V113H206.789ZM210.748 108.216C210.748 106.712 211.676 105.784 212.78 105.784C213.98 105.784 214.62 106.6 214.62 108.056V113H216.236V107.512C216.236 105.48 215.084 104.36 213.34 104.36C212.172 104.36 211.212 104.984 210.636 105.928V104.52H209.132V113H210.748V108.216ZM221.971 113.16C223.971 113.16 225.427 112.024 225.843 110.136H224.243C223.971 111.24 223.139 111.896 221.939 111.896C220.515 111.896 219.651 110.888 219.523 109.16H225.843C226.131 106.408 224.451 104.36 221.923 104.36C219.587 104.36 217.875 106.2 217.875 108.712C217.875 111.384 219.523 113.16 221.971 113.16ZM221.891 105.576C223.203 105.576 224.051 106.52 224.131 108.088H219.539C219.715 106.504 220.595 105.576 221.891 105.576ZM234.381 110.472C234.381 109.256 233.581 108.52 231.901 108.216L230.461 107.944C229.437 107.752 229.005 107.432 229.005 106.744C229.005 106.008 229.693 105.576 230.717 105.576C231.853 105.576 232.605 106.168 232.701 107.192H234.253C234.109 105.448 232.733 104.36 230.701 104.36C228.733 104.36 227.437 105.4 227.437 106.888C227.437 108.168 228.317 108.968 229.885 109.272L231.261 109.528C232.317 109.736 232.749 110.04 232.749 110.744C232.749 111.544 231.997 111.944 230.861 111.944C229.565 111.944 228.717 111.288 228.653 110.232H227.101C227.261 112.056 228.589 113.16 230.829 113.16C233.085 113.16 234.381 112.136 234.381 110.472ZM242.965 110.472C242.965 109.256 242.165 108.52 240.485 108.216L239.045 107.944C238.021 107.752 237.589 107.432 237.589 106.744C237.589 106.008 238.277 105.576 239.301 105.576C240.437 105.576 241.189 106.168 241.285 107.192H242.837C242.693 105.448 241.317 104.36 239.285 104.36C237.317 104.36 236.021 105.4 236.021 106.888C236.021 108.168 236.901 108.968 238.469 109.272L239.845 109.528C240.901 109.736 241.333 110.04 241.333 110.744C241.333 111.544 240.581 111.944 239.445 111.944C238.149 111.944 237.301 111.288 237.237 110.232H235.685C235.845 112.056 237.173 113.16 239.413 113.16C241.669 113.16 242.965 112.136 242.965 110.472Z" fill="#000"/></svg>