<svg xmlns="http://www.w3.org/2000/svg" width="232" height="119" viewBox="0 0 232 119" fill="none"><rect width="232" height="119" rx="10" fill="#fff"/><path d="M113.167 25H108.5C107.395 25 106.5 25.8954 106.5 27V53C106.5 54.1046 107.395 55 108.5 55H124.5C125.605 55 126.5 54.1046 126.5 53V27C126.5 25.8954 125.605 25 124.5 25H119.833M113.167 25L119.833 25M113.167 25V26.6667M119.833 25V26.6667M119.833 26.6667V26.6667C119.833 27.5871 119.087 28.3333 118.167 28.3333H114.833C113.913 28.3333 113.167 27.5871 113.167 26.6667V26.6667M119.833 26.6667L113.167 26.6667" stroke="#000" stroke-width="3" stroke-linecap="round" stroke-linejoin="round"/><path d="M111.5 33.335L111.5 33.334" stroke="white" stroke-width="3" stroke-linecap="round" stroke-linejoin="round"/><path d="M111.5 38.335L111.5 38.334" stroke="white" stroke-width="3" stroke-linecap="round" stroke-linejoin="round"/><path d="M116.5 38.335L116.5 38.334" stroke="white" stroke-width="3" stroke-linecap="round" stroke-linejoin="round"/><path d="M116.5 33.335L116.5 33.334" stroke="white" stroke-width="3" stroke-linecap="round" stroke-linejoin="round"/><path d="M121.5 33.335L121.5 33.334" stroke="white" stroke-width="3" stroke-linecap="round" stroke-linejoin="round"/><path d="M121.5 38.335L121.5 38.334" stroke="white" stroke-width="3" stroke-linecap="round" stroke-linejoin="round"/><path d="M111.5 43.335L111.5 43.334" stroke="white" stroke-width="3" stroke-linecap="round" stroke-linejoin="round"/><path d="M116.5 43.335L116.5 43.334" stroke="white" stroke-width="3" stroke-linecap="round" stroke-linejoin="round"/><path d="M103.123 76.512H101.363V83.92C101.363 85.584 100.387 86.656 98.6746 86.656C96.9786 86.656 96.0026 85.584 96.0026 83.92V76.512H94.2426V83.872C94.2426 86.512 95.9226 88.24 98.6746 88.24C101.427 88.24 103.123 86.512 103.123 83.872V76.512ZM107.431 88V76.512H105.671V88H107.431ZM109.989 91.088L117.061 76.512H115.461L108.373 91.088H109.989ZM126.876 76.512H125.116V83.92C125.116 85.584 124.14 86.656 122.428 86.656C120.732 86.656 119.756 85.584 119.756 83.92V76.512H117.996V83.872C117.996 86.512 119.676 88.24 122.428 88.24C125.18 88.24 126.876 86.512 126.876 83.872V76.512ZM130.673 88L133.585 83.28L136.465 88H138.529L134.881 82.176L138.321 76.512H136.369L133.633 80.992L130.993 76.512H128.961L132.337 82.112L128.625 88H130.673Z" fill="#000"/></svg>