<svg xmlns="http://www.w3.org/2000/svg" width="231" height="119" viewBox="0 0 231 119" fill="none"><rect width="231" height="119" rx="10" fill="#fff"/><path d="M101 25H102.667M131 25H129.333M129.333 25V45H119.333M129.333 25H102.667M102.667 25V45H112.667M112.667 45L109.333 55M112.667 45H119.333M119.333 45L122.667 55" stroke="#000" stroke-width="3" stroke-linecap="round" stroke-linejoin="round"/><path d="M114.333 38.3333V31.6666L119.333 35L114.333 38.3333Z" stroke="#000" stroke-width="3" stroke-linecap="round" stroke-linejoin="round"/><path d="M61.624 76.512H59.864L56.472 85.952L53.128 76.512H51.24L55.464 88H57.4L61.624 76.512ZM65.063 77.552C65.063 76.928 64.583 76.48 63.895 76.48C63.207 76.48 62.711 76.928 62.711 77.552C62.711 78.16 63.207 78.624 63.895 78.624C64.583 78.624 65.063 78.16 65.063 77.552ZM64.711 88V79.52H63.095V88H64.711ZM66.4464 83.76C66.4464 86.304 67.9184 88.16 70.2064 88.16C71.4064 88.16 72.4304 87.552 73.0384 86.48V88H74.5424V76.512H72.9264V80.976C72.3344 79.936 71.3424 79.36 70.2064 79.36C67.9184 79.36 66.4464 81.184 66.4464 83.76ZM68.1264 83.76C68.1264 81.84 69.1184 80.784 70.5264 80.784C71.8704 80.784 72.9264 81.824 72.9264 83.728C72.9264 85.6 71.9024 86.72 70.5264 86.72C69.1184 86.72 68.1264 85.648 68.1264 83.76ZM80.3767 88.16C82.3767 88.16 83.8327 87.024 84.2487 85.136H82.6487C82.3767 86.24 81.5447 86.896 80.3447 86.896C78.9207 86.896 78.0567 85.888 77.9287 84.16H84.2487C84.5367 81.408 82.8567 79.36 80.3287 79.36C77.9927 79.36 76.2807 81.2 76.2807 83.712C76.2807 86.384 77.9287 88.16 80.3767 88.16ZM80.2967 80.576C81.6087 80.576 82.4567 81.52 82.5367 83.088H77.9447C78.1207 81.504 79.0007 80.576 80.2967 80.576ZM89.4626 88.16C91.8626 88.16 93.6226 86.272 93.6226 83.76C93.6226 81.248 91.8626 79.36 89.4626 79.36C87.0626 79.36 85.3026 81.248 85.3026 83.76C85.3026 86.272 87.0626 88.16 89.4626 88.16ZM89.4626 86.736C88.0706 86.736 86.9826 85.616 86.9826 83.76C86.9826 81.904 88.0706 80.8 89.4626 80.8C90.8546 80.8 91.9586 81.904 91.9586 83.76C91.9586 85.616 90.8546 86.736 89.4626 86.736ZM102.926 84C105.502 84 107.166 82.64 107.166 80.224C107.166 77.824 105.502 76.512 102.926 76.512H98.9417V88H100.702V84H102.926ZM102.91 78C104.462 78 105.406 78.816 105.406 80.24C105.406 81.664 104.462 82.512 102.91 82.512H100.702V78H102.91ZM110.514 83.664C110.514 81.792 111.842 80.992 113.666 81.088V79.408C112.274 79.408 110.994 80.144 110.402 81.312V79.52H108.898V88H110.514V83.664ZM118.566 88.16C120.966 88.16 122.726 86.272 122.726 83.76C122.726 81.248 120.966 79.36 118.566 79.36C116.166 79.36 114.406 81.248 114.406 83.76C114.406 86.272 116.166 88.16 118.566 88.16ZM118.566 86.736C117.174 86.736 116.086 85.616 116.086 83.76C116.086 81.904 117.174 80.8 118.566 80.8C119.958 80.8 121.062 81.904 121.062 83.76C121.062 85.616 119.958 86.736 118.566 86.736ZM123.865 83.76C123.865 86.304 125.337 88.16 127.625 88.16C128.825 88.16 129.849 87.552 130.457 86.48V88H131.961V76.512H130.345V80.976C129.753 79.936 128.761 79.36 127.625 79.36C125.337 79.36 123.865 81.184 123.865 83.76ZM125.545 83.76C125.545 81.84 126.537 80.784 127.945 80.784C129.289 80.784 130.345 81.824 130.345 83.728C130.345 85.6 129.321 86.72 127.945 86.72C126.537 86.72 125.545 85.648 125.545 83.76ZM139.604 84.512C139.604 85.84 138.724 86.736 137.636 86.736C136.58 86.736 135.844 86.128 135.844 84.656V79.52H134.228V84.976C134.228 87.152 135.412 88.16 137.124 88.16C138.276 88.16 139.268 87.536 139.716 86.656V88H141.22V79.52H139.604V84.512ZM146.908 88.176C149.036 88.176 150.54 86.8 150.828 84.56H149.148C148.956 85.936 148.124 86.736 146.924 86.736C145.532 86.736 144.62 85.568 144.62 83.76C144.62 81.968 145.532 80.784 146.924 80.784C148.108 80.784 148.956 81.6 149.132 82.96H150.828C150.524 80.752 149.004 79.36 146.908 79.36C144.62 79.36 142.956 81.2 142.956 83.76C142.956 86.352 144.588 88.176 146.908 88.176ZM157.338 86.432C157.002 86.592 156.666 86.656 156.282 86.656C155.418 86.656 154.858 86.24 154.858 85.072V80.896H157.418V79.52H154.858V77.008H153.242V79.52H151.37V80.896H153.242V85.44C153.242 87.312 154.33 88.16 155.898 88.16C156.41 88.16 156.842 88.08 157.338 87.856V86.432ZM161.029 77.552C161.029 76.928 160.549 76.48 159.861 76.48C159.173 76.48 158.677 76.928 158.677 77.552C158.677 78.16 159.173 78.624 159.861 78.624C160.549 78.624 161.029 78.16 161.029 77.552ZM160.677 88V79.52H159.061V88H160.677ZM166.572 88.16C168.972 88.16 170.732 86.272 170.732 83.76C170.732 81.248 168.972 79.36 166.572 79.36C164.172 79.36 162.412 81.248 162.412 83.76C162.412 86.272 164.172 88.16 166.572 88.16ZM166.572 86.736C165.18 86.736 164.092 85.616 164.092 83.76C164.092 81.904 165.18 80.8 166.572 80.8C167.964 80.8 169.068 81.904 169.068 83.76C169.068 85.616 167.964 86.736 166.572 86.736ZM174.095 83.216C174.095 81.712 175.023 80.784 176.127 80.784C177.327 80.784 177.967 81.6 177.967 83.056V88H179.583V82.512C179.583 80.48 178.431 79.36 176.687 79.36C175.519 79.36 174.559 79.984 173.983 80.928V79.52H172.479V88H174.095V83.216Z" fill="#000"/></svg>