<svg xmlns="http://www.w3.org/2000/svg" width="314" height="144" viewBox="0 0 314 144" fill="none"><rect width="314" height="144" rx="10" fill="#fff"/><path d="M129.375 75H129.406" stroke="#000" stroke-width="4" stroke-linecap="round" stroke-linejoin="round"/><path d="M141.875 75C141.875 68.0964 136.279 62.5 129.375 62.5" stroke="#000" stroke-width="4" stroke-linecap="round" stroke-linejoin="round"/><path d="M154.375 75C154.375 61.1929 143.182 50 129.375 50" stroke="#000" stroke-width="4" stroke-linecap="round" stroke-linejoin="round"/><path d="M129.375 39.0625V27C129.375 25.8954 130.271 25 131.375 25H183.625C184.73 25 185.625 25.8954 185.625 27V73C185.625 74.1046 184.73 75 183.625 75H166.875" stroke="#000" stroke-width="4" stroke-linecap="round" stroke-linejoin="round"/><path d="M72.3289 109C74.9049 109 76.5689 107.64 76.5689 105.224C76.5689 102.824 74.9049 101.512 72.3289 101.512H68.3449V113H70.1049V109H72.3289ZM72.3129 103C73.8649 103 74.8089 103.816 74.8089 105.24C74.8089 106.664 73.8649 107.512 72.3129 107.512H70.1049V103H72.3129ZM79.9173 108.664C79.9173 106.792 81.2453 105.992 83.0693 106.088V104.408C81.6773 104.408 80.3973 105.144 79.8053 106.312V104.52H78.3013V113H79.9173V108.664ZM87.9689 113.16C90.3689 113.16 92.1289 111.272 92.1289 108.76C92.1289 106.248 90.3689 104.36 87.9689 104.36C85.5689 104.36 83.8089 106.248 83.8089 108.76C83.8089 111.272 85.5689 113.16 87.9689 113.16ZM87.9689 111.736C86.5769 111.736 85.4889 110.616 85.4889 108.76C85.4889 106.904 86.5769 105.8 87.9689 105.8C89.3609 105.8 90.4649 106.904 90.4649 108.76C90.4649 110.616 89.3609 111.736 87.9689 111.736ZM93.2683 108.76C93.2683 111.304 94.7403 113.16 97.0283 113.16C98.2283 113.16 99.2523 112.552 99.8603 111.48V113H101.364V101.512H99.7483V105.976C99.1563 104.936 98.1643 104.36 97.0283 104.36C94.7403 104.36 93.2683 106.184 93.2683 108.76ZM94.9483 108.76C94.9483 106.84 95.9403 105.784 97.3483 105.784C98.6923 105.784 99.7483 106.824 99.7483 108.728C99.7483 110.6 98.7243 111.72 97.3483 111.72C95.9403 111.72 94.9483 110.648 94.9483 108.76ZM109.007 109.512C109.007 110.84 108.127 111.736 107.039 111.736C105.983 111.736 105.247 111.128 105.247 109.656V104.52H103.631V109.976C103.631 112.152 104.815 113.16 106.527 113.16C107.679 113.16 108.671 112.536 109.119 111.656V113H110.623V104.52H109.007V109.512ZM116.311 113.176C118.439 113.176 119.943 111.8 120.231 109.56H118.551C118.359 110.936 117.527 111.736 116.327 111.736C114.935 111.736 114.023 110.568 114.023 108.76C114.023 106.968 114.935 105.784 116.327 105.784C117.511 105.784 118.359 106.6 118.535 107.96H120.231C119.927 105.752 118.407 104.36 116.311 104.36C114.023 104.36 112.359 106.2 112.359 108.76C112.359 111.352 113.991 113.176 116.311 113.176ZM126.742 111.432C126.406 111.592 126.07 111.656 125.686 111.656C124.822 111.656 124.262 111.24 124.262 110.072V105.896H126.822V104.52H124.262V102.008H122.646V104.52H120.774V105.896H122.646V110.44C122.646 112.312 123.734 113.16 125.302 113.16C125.814 113.16 126.246 113.08 126.742 112.856V111.432ZM128.45 116.088L135.522 101.512H133.922L126.834 116.088H128.45ZM141.533 113V103.096H145.277V101.512H136.029V103.096H139.773V113H141.533ZM149.167 113.16C151.167 113.16 152.623 112.024 153.039 110.136H151.439C151.167 111.24 150.335 111.896 149.135 111.896C147.711 111.896 146.847 110.888 146.719 109.16H153.039C153.327 106.408 151.647 104.36 149.119 104.36C146.783 104.36 145.071 106.2 145.071 108.712C145.071 111.384 146.719 113.16 149.167 113.16ZM149.087 105.576C150.399 105.576 151.247 106.52 151.327 108.088H146.735C146.911 106.504 147.791 105.576 149.087 105.576ZM158.045 113.176C160.173 113.176 161.677 111.8 161.965 109.56H160.285C160.093 110.936 159.261 111.736 158.061 111.736C156.669 111.736 155.757 110.568 155.757 108.76C155.757 106.968 156.669 105.784 158.061 105.784C159.245 105.784 160.093 106.6 160.269 107.96H161.965C161.661 105.752 160.141 104.36 158.045 104.36C155.757 104.36 154.093 106.2 154.093 108.76C154.093 111.352 155.725 113.176 158.045 113.176ZM165.308 108.216C165.308 106.712 166.236 105.784 167.34 105.784C168.54 105.784 169.18 106.6 169.18 108.056V113H170.796V107.512C170.796 105.48 169.644 104.36 167.9 104.36C166.732 104.36 165.868 104.968 165.308 105.88V101.512H163.692V113H165.308V108.216ZM181.622 113.24C184.502 113.24 186.806 111.32 187.238 108.472H185.366C185.046 110.328 183.542 111.656 181.638 111.656C179.366 111.656 177.766 109.816 177.766 107.24C177.766 104.696 179.366 102.856 181.638 102.856C183.542 102.856 185.046 104.168 185.366 106.024H187.238C186.806 103.192 184.502 101.272 181.622 101.272C178.422 101.272 175.942 103.864 175.942 107.24C175.942 110.632 178.422 113.24 181.622 113.24ZM192.591 113.16C194.991 113.16 196.751 111.272 196.751 108.76C196.751 106.248 194.991 104.36 192.591 104.36C190.191 104.36 188.431 106.248 188.431 108.76C188.431 111.272 190.191 113.16 192.591 113.16ZM192.591 111.736C191.199 111.736 190.111 110.616 190.111 108.76C190.111 106.904 191.199 105.8 192.591 105.8C193.983 105.8 195.087 106.904 195.087 108.76C195.087 110.616 193.983 111.736 192.591 111.736ZM200.114 113V108.136C200.114 106.712 200.994 105.784 202.114 105.784C203.298 105.784 203.922 106.616 203.922 108.024V113H205.538V108.136C205.538 106.712 206.434 105.784 207.538 105.784C208.722 105.784 209.346 106.616 209.346 108.024V113H210.962V107.512C210.962 105.496 209.842 104.36 208.098 104.36C206.802 104.36 205.826 105.032 205.234 106.12C204.85 105 203.906 104.36 202.658 104.36C201.49 104.36 200.578 104.952 200.002 105.928V104.52H198.498V113H200.114ZM221.319 108.76C221.319 106.2 219.831 104.36 217.575 104.36C216.375 104.36 215.335 104.984 214.727 106.072V104.52H213.223V116.088H214.839V111.56C215.447 112.584 216.423 113.16 217.575 113.16C219.847 113.16 221.319 111.32 221.319 108.76ZM219.639 108.76C219.639 110.664 218.631 111.72 217.239 111.72C215.879 111.72 214.839 110.632 214.839 108.76C214.839 106.856 215.895 105.784 217.239 105.784C218.631 105.784 219.639 106.856 219.639 108.76ZM228.194 113H229.538V107.56C229.538 105.544 228.322 104.36 226.226 104.36C224.242 104.36 222.882 105.624 222.802 107.528H224.274C224.322 106.344 225.042 105.64 226.226 105.64C227.346 105.64 228.002 106.328 228.002 107.544V108.168C227.314 108.088 226.914 108.072 226.418 108.072C223.89 108.072 222.562 108.936 222.562 110.6C222.562 112.152 223.714 113.16 225.474 113.16C226.722 113.16 227.666 112.632 228.194 111.688V113ZM224.098 110.552C224.098 109.56 224.898 109.08 226.514 109.08C226.93 109.08 227.378 109.096 228.002 109.176V109.864C228.002 111.16 227.154 112.008 225.794 112.008C224.754 112.008 224.098 111.432 224.098 110.552ZM233.414 108.216C233.414 106.712 234.342 105.784 235.446 105.784C236.646 105.784 237.286 106.6 237.286 108.056V113H238.902V107.512C238.902 105.48 237.75 104.36 236.006 104.36C234.838 104.36 233.878 104.984 233.302 105.928V104.52H231.798V113H233.414V108.216ZM247.876 104.52H246.244L243.956 110.984L241.492 104.52H239.748L243.092 112.888L241.876 116.088H243.636L247.876 104.52Z" fill="#000"/></svg>